PathFileType	4	(X/Y/Z)	Patient4_TMGait_0pt6_01_right_35.trc.trc
DataRate	CameraRate	NumFrames	NumMarkers	Units	OrigDataRate	OrigDataStartFrame	OrigNumFrames
80.459770114943	80.459770114943	5	33	mm	80.459770114943	89	       141
Frame#	Time	Sacral			L.Shoulder			Chest			R.Shoulder			Neck			R.ASIS			L.ASIS			R.Thigh.Superior			R.Thigh.Lateral			R.Thigh.Inferior			R.Patella			L.Thigh.Superior			L.Thigh.Lateral			L.Thigh.Inferior			L.Patella			L.Shank.Superior			L.Shank.Lateral			L.Shank.Inferior			R.Shank.Superior			R.Shank.Lateral			R.Shank.Inferior			R.Heel			R.Midfoot.Superior			R.Midfoot.Lateral			R.Toe			L.Heel			L.Midfoot.Lateral			L.Midfoot.Superior			L.Toe			L.Elbow			L.Wrist			R.Elbow			R.Wrist			
		X1	Y1	Z1	X2	Y2	Z2	X3	Y3	Z3	X4	Y4	Z4	X5	Y5	Z5	X6	Y6	Z6	X7	Y7	Z7	X8	Y8	Z8	X9	Y9	Z9	X10	Y10	Z10	X11	Y11	Z11	X12	Y12	Z12	X13	Y13	Z13	X14	Y14	Z14	X15	Y15	Z15	X16	Y16	Z16	X17	Y17	Z17	X18	Y18	Z18	X19	Y19	Z19	X20	Y20	Z20	X21	Y21	Z21	X22	Y22	Z22	X23	Y23	Z23	X24	Y24	Z24	X25	Y25	Z25	X26	Y26	Z26	X27	Y27	Z27	X28	Y28	Z28	X29	Y29	Z29	X30	Y30	Z30	X31	Y31	Z31	X32	Y32	Z32	X33	Y33	Z33	

89	43.083714285714	789.633871647455	1007.271258214978	446.809331875842	942.174562837062	1437.931094114535	264.096600806327	1061.160465495865	1367.612385035677	412.540113556750	993.046775659825	1435.131140470602	594.624132484387	936.231963852017	1493.689212872293	420.215840093031	1020.331784480056	934.532357934731	545.556334561492	991.100692661454	963.352597922409	274.226596708700	1060.471590998056	731.979743624148	523.187473259403	984.367627335391	623.610511834551	591.228749576426	1063.029268213761	563.805898893008	514.143450528246	1051.591028813908	452.769068579125	535.059727223132	1054.970052316393	759.316816927653	306.265982428235	974.861255687185	636.833680761569	251.903013309291	1066.189932076684	566.309714120021	314.480756935606	1071.982968651133	496.091562516061	324.932756381570	1048.219506776225	422.588961933967	319.146061026218	963.364671122315	302.983078463808	274.612669667102	1021.695686242604	196.034432035151	345.468497218310	967.606828482240	390.975800236217	542.368726121552	843.091773228887	364.469069842346	602.698970313487	818.054282535228	257.074825017208	555.102566207000	613.263760582501	219.198950356781	524.461260767683	769.801683858707	137.278316370516	571.065306431713	660.823941678922	153.639491688242	600.336634833821	816.837811814660	28.655180033564	600.260738544808	900.492902676295	38.587466958794	394.983210153303	971.025198526862	35.945953115514	311.128709674195	1055.316335795417	97.089542501705	334.437303384861	1182.704491007802	43.587629662520	300.926529546467	875.811396272952	1087.104995408294	151.971090477011	955.508438910874	838.134291790470	150.945145731314	1034.855264956216	1084.293731047872	694.347956940372	1274.228792438674	1060.263369486740	620.040438745328	
90	43.096142857143	788.867471894422	1007.360025069201	444.216192312488	943.360176167507	1438.324697485073	262.496898718685	1061.102965458297	1367.801208646648	411.837023987925	991.517637420451	1434.894820226613	593.588585194899	936.229203356372	1493.962059856836	418.760837599934	1019.287589233252	935.118860303406	544.586176898756	991.292546155434	963.370595864580	272.765476268874	1064.580061994086	735.048004691082	521.218751654143	991.955948013135	625.088771430181	589.592500271481	1072.095100099822	567.088744273262	512.163202737036	1062.877821548879	455.042228382035	533.183170633711	1053.936934764847	758.536716112712	304.916910790496	973.012871264065	636.671473333985	250.666169239410	1063.529359137610	565.521304105631	313.589083020391	1068.722746326480	495.238805602430	324.210110903223	1044.307611465899	421.776324325056	318.522381226040	958.499839979656	302.853224035391	274.031079059348	1015.624983149548	195.538995000247	345.239765795103	977.879130728995	393.370215651817	540.564298425110	852.632750801204	369.699085210567	600.832987101264	825.687786623081	262.609724813241	553.861306992629	621.254083225996	231.437144026017	522.580891109283	774.125743296519	142.546807314715	570.016630833623	665.617987658567	163.913477684253	598.896469229888	815.687558643288	28.865134854869	600.137845673263	893.044554589380	38.619878926716	394.864407700016	963.580867345413	35.919336059191	311.029821182202	1047.981736877327	96.953701688352	334.417485552666	1175.330130870466	43.191806777235	300.866023727149	882.779532115691	1087.276864444518	146.936297567650	974.088653185311	842.085486450589	145.190759679513	1025.224822215620	1082.656852949735	692.678803487932	1263.910897865063	1039.351304199210	621.348389952179	
91	43.108571428571	787.941746650542	1007.540179151378	441.742857602715	944.494950309004	1438.707816414598	261.002391007917	1060.987821360984	1367.953205280699	411.221976359807	990.003422623712	1434.710180056905	592.610052453540	936.246865163903	1494.262610218969	417.363930164620	1018.060623654532	935.800375431414	543.778177179157	991.346054364925	963.415667709308	271.445672261500	1068.287793448397	738.446816677983	519.096026566108	999.339874451403	626.980630646683	587.975229635295	1080.801524110948	570.897851231848	510.110359789576	1074.077888721680	457.916373310609	531.237320905297	1052.847834456759	757.782407386664	303.577234670415	970.930494981556	636.519160978642	249.592918675728	1060.702058766886	564.728020487739	312.765380164992	1065.315817503158	494.409529281807	323.623983866706	1040.255037946737	421.006150354302	318.009992408596	953.524950359348	302.763065224994	273.526550656730	1009.482973182602	195.076631882868	345.048844912616	988.281802602454	396.168321167742	538.739868963225	862.462873638879	374.754529278685	598.907214319563	834.054614985960	267.907247046568	552.472033028114	630.138368843130	241.985924449662	520.545411456206	779.868867425713	147.676054986342	568.788291994528	671.849836775003	173.006482213669	597.274153220542	816.904149619837	29.728191444254	599.809367278293	885.592026824863	38.661225527953	394.743939696684	956.131628812417	35.906877870167	310.930598449417	1040.625988388465	96.842945071275	334.387482293618	1167.933443446827	42.861668169227	300.791081733202	890.135970277967	1087.541543537832	141.991802864999	992.833212591733	846.713538359386	139.680953680410	1015.817104445582	1081.340347750082	691.180451079928	1252.099421891946	1018.270252837576	622.971811176923	
92	43.121000000000	786.865521328130	1007.841390409884	439.374214487517	945.601802457719	1439.113132007567	259.606849181529	1060.827336925042	1368.102864856449	410.691872295304	988.501373174955	1434.615551190601	591.676752751248	936.288484792128	1494.619602061000	416.012849116974	1016.664126860057	936.598162627594	543.080322404216	991.299853356824	963.515716706585	270.272716969566	1071.582544086312	742.176942512593	516.882068281391	1006.464169303961	629.295569199448	586.399192646290	1089.100866131112	575.225104792214	508.029366398068	1085.121842906074	461.403016122883	529.270327194483	1051.672109477792	757.035623807067	302.265968685216	968.585658961545	636.385140602962	248.682384613849	1057.651577764300	563.929996877213	312.035320944063	1061.695781004251	493.606160498326	323.185579531442	1036.005787369415	420.289657760265	317.609934297860	948.397888938230	302.711595039827	273.103086433498	1003.245633551620	194.655970161090	344.899973907582	998.772154763348	399.362179864057	536.951722876903	872.523687605417	379.530240461170	596.961785213244	843.172190991184	272.815650077886	550.981684282777	639.815798450557	250.495651687096	518.446885771791	787.158497482692	152.444138524495	567.407348483783	679.559332996717	180.566672421174	595.534059463874	820.857128147919	31.205711903500	599.242827867485	878.128910037659	38.707957467600	394.626369201678	948.672752313772	35.905652630871	310.834205746129	1033.244968858214	96.755707734064	334.349218646039	1160.511450652342	42.593356536009	300.705248376877	897.828073865719	1087.949903976473	137.188932891920	1011.632609335599	852.051543174135	134.463191435122	1006.711593480741	1080.364166748833	689.868774184854	1238.686039748195	997.207682747807	624.944539110657	
93	43.133428571429	785.649522371267	1008.277631862914	437.093914132441	946.714329056021	1439.563273414854	258.305344452043	1060.637544374113	1368.274340009560	410.249342984381	987.003195307624	1434.632588190459	590.782461705523	936.357763078918	1495.050564609936	414.700440310417	1015.112404963344	937.518637367020	542.442658730067	991.197821320489	963.690463205675	269.246830722776	1074.471389274351	746.222399288862	514.659524443628	1013.287194962303	632.023377815023	584.893303454670	1096.958108190229	580.039458337545	505.967372787181	1095.941509228643	465.494114258614	527.325857310987	1050.365162434172	756.280867304932	301.035109720402	965.972387247652	636.278275094185	247.923468382522	1054.331451275557	563.130709000891	311.429483560507	1057.801954394710	492.828851501906	322.898823276989	1031.511431936689	419.634849792442	317.316497244151	943.083053463821	302.694782600113	272.758732985965	996.894043448805	194.283195651339	344.793037785407	1009.311936462013	402.921615139799	535.245338727307	882.770338569600	383.913075020644	595.044107422598	853.056078274145	277.188319125437	549.443459551149	650.220042281256	256.713701597959	516.380043220340	796.086822586710	156.631200714510	565.913756761757	688.768138916839	186.318884009779	593.751480367471	827.794706721451	33.152570081107	598.437912134276	870.649963431050	38.756501570513	394.515584347632	941.201227546791	35.912045816878	310.743390031706	1025.837480536264	96.688821644392	334.304791769542	1153.063969242144	42.379296290417	300.612998124614	905.777375176225	1088.541731610419	132.575714678161	1030.375568324306	858.119375628214	129.578905241556	997.974093514701	1079.722476955823	688.749164808789	1223.590587346637	976.357327773771	627.313319651052	
